<svg width="325" height="166" viewBox="0 0 325 166" fill="none" xmlns="http://www.w3.org/2000/svg">
<path d="M120.729 71.1481C148.934 54.7479 177.14 38.3484 205.345 21.9482" stroke="black" stroke-width="6.82487" stroke-miterlimit="3" stroke-linecap="round"/>
<path d="M208.58 20.9991C269.157 -0.167956 303.788 20.857 321.104 31.3697" stroke="#C34036" stroke-width="6.82487" stroke-miterlimit="3" stroke-linecap="round"/>
<path d="M4 62.1628C57.6158 94.297 99.0955 78.9882 119.835 71.3334" stroke="#C34036" stroke-width="6.82487" stroke-miterlimit="3" stroke-linecap="round"/>
<path d="M120.063 22.1711C148.61 38.8455 177.158 55.5199 205.705 72.1943" stroke="black" stroke-width="6.82487" stroke-miterlimit="3" stroke-linecap="round"/>
<path d="M162.409 72.1311C176.315 72.1311 187.588 60.8582 187.588 46.9523C187.588 33.0463 176.315 21.7733 162.409 21.7733C148.503 21.7733 137.23 33.0463 137.23 46.9523C137.23 60.8582 148.503 72.1311 162.409 72.1311Z" stroke="black" stroke-width="6.82487" stroke-miterlimit="3" stroke-linecap="round"/>
<path fill-rule="evenodd" clip-rule="evenodd" d="M205.503 4.17428L120.015 4L119.84 89.1395L206.027 90.1863L205.503 4.17428Z" stroke="black" stroke-width="6.82487" stroke-miterlimit="1.5" stroke-linecap="round"/>
<path d="M48.6701 165.354H21.541V125.921H26.5122V160.92H48.6701V165.354Z" fill="black"/>
<path d="M96.4113 165.354H91.2281L77.0356 131.475L66.6754 156.093L62.7952 165.354H57.6121L74.7382 125.893H79.2851L96.4113 165.354Z" fill="black"/>
<path d="M109.021 165.354V125.921H124.177C127.066 125.921 129.597 126.445 131.77 127.493C133.942 128.54 135.615 130.019 136.787 131.927C137.958 133.836 138.545 136.034 138.545 138.523C138.545 141.105 137.969 143.365 136.817 145.301C135.665 147.237 134.008 148.734 131.846 149.792C129.683 150.849 127.137 151.378 124.207 151.378H113.992V165.354H109.021ZM123.843 147.139C125.783 147.139 127.486 146.788 128.951 146.087C130.416 145.385 131.547 144.389 132.346 143.098C133.144 141.807 133.543 140.3 133.543 138.579C133.543 136.876 133.144 135.394 132.346 134.13C131.547 132.867 130.416 131.89 128.951 131.197C127.486 130.505 125.783 130.159 123.843 130.159H113.992V147.139H123.843Z" fill="black"/>
<path d="M157.278 125.921H152.306V165.354H157.278V125.921Z" fill="black"/>
<path d="M187.226 165.888C183.952 165.888 180.835 165.289 177.875 164.092C174.914 162.894 172.464 161.182 170.524 158.955L173.797 156.036C175.394 157.814 177.395 159.18 179.799 160.134C182.204 161.088 184.679 161.565 187.226 161.565C189.145 161.565 190.873 161.294 192.409 160.751C193.945 160.209 195.152 159.409 196.031 158.352C196.91 157.295 197.35 156.008 197.35 154.493C197.35 153.015 196.87 151.817 195.91 150.9C194.95 149.983 193.697 149.249 192.152 148.697C190.606 148.145 188.459 147.532 185.71 146.859C183.043 146.222 180.785 145.53 178.936 144.782C177.086 144.033 175.526 142.943 174.252 141.512C172.979 140.08 172.343 138.233 172.343 135.969C172.343 133.911 172.954 132.082 174.177 130.482C175.399 128.882 177.112 127.633 179.314 126.735C181.517 125.837 184.053 125.388 186.923 125.388C189.631 125.388 192.237 125.823 194.743 126.693C197.249 127.563 199.421 128.793 201.26 130.383L198.29 133.555C196.875 132.358 195.173 131.408 193.182 130.706C191.191 130.004 189.176 129.654 187.135 129.654C185.336 129.654 183.689 129.911 182.194 130.426C180.699 130.94 179.511 131.689 178.632 132.671C177.753 133.653 177.314 134.799 177.314 136.109C177.314 137.475 177.769 138.579 178.678 139.421C179.587 140.263 180.729 140.923 182.103 141.4C183.477 141.877 185.448 142.433 188.014 143.07C191.106 143.893 193.637 144.716 195.607 145.539C197.577 146.363 199.199 147.49 200.472 148.922C201.745 150.353 202.382 152.182 202.382 154.409C202.382 156.804 201.715 158.866 200.381 160.597C199.047 162.328 197.234 163.642 194.94 164.54C192.647 165.439 190.075 165.888 187.226 165.888Z" fill="black"/>
<path d="M235.391 166C231.37 166 227.687 165.097 224.343 163.292C220.998 161.486 218.351 159.025 216.401 155.91C214.451 152.795 213.476 149.366 213.476 145.624C213.476 141.881 214.451 138.453 216.401 135.337C218.351 132.222 220.998 129.766 224.343 127.97C227.687 126.173 231.37 125.276 235.391 125.276C238.18 125.276 240.797 125.711 243.242 126.581C245.687 127.451 247.88 128.662 249.819 130.215L246.97 133.667C245.374 132.432 243.585 131.464 241.605 130.762C239.625 130.061 237.554 129.71 235.391 129.71C232.34 129.71 229.526 130.412 226.949 131.815C224.373 133.218 222.327 135.141 220.811 137.583C219.295 140.024 218.538 142.714 218.538 145.652C218.538 148.589 219.295 151.27 220.811 153.693C222.327 156.116 224.373 158.029 226.949 159.433C229.526 160.836 232.34 161.537 235.391 161.537C237.554 161.537 239.584 161.191 241.484 160.499C243.383 159.807 245.232 158.787 247.031 157.44L249.819 160.948C247.839 162.52 245.626 163.755 243.181 164.653C240.736 165.551 238.139 166 235.391 166Z" fill="black"/>
<path d="M281.647 166C277.626 166 273.943 165.097 270.599 163.292C267.254 161.486 264.607 159.025 262.657 155.91C260.707 152.795 259.732 149.366 259.732 145.624C259.732 141.881 260.707 138.453 262.657 135.337C264.607 132.222 267.254 129.766 270.599 127.97C273.943 126.173 277.626 125.276 281.647 125.276C285.669 125.276 289.356 126.173 292.711 127.97C296.066 129.766 298.713 132.222 300.653 135.337C302.593 138.453 303.563 141.881 303.563 145.624C303.563 149.366 302.593 152.795 300.653 155.91C298.713 159.025 296.066 161.486 292.711 163.292C289.356 165.097 285.669 166 281.647 166ZM281.647 161.537C284.699 161.537 287.518 160.836 290.104 159.433C292.691 158.029 294.742 156.116 296.258 153.693C297.773 151.27 298.531 148.589 298.531 145.652C298.531 142.714 297.773 140.024 296.258 137.583C294.742 135.141 292.691 133.218 290.104 131.815C287.518 130.412 284.699 129.71 281.647 129.71C278.596 129.71 275.782 130.412 273.205 131.815C270.629 133.218 268.583 135.141 267.067 137.583C265.552 140.024 264.794 142.714 264.794 145.652C264.794 148.589 265.552 151.27 267.067 153.693C268.583 156.116 270.629 158.029 273.205 159.433C275.782 160.836 278.596 161.537 281.647 161.537Z" fill="black"/>
</svg>
