<svg width="325" height="166" viewBox="0 0 325 166" fill="none" xmlns="http://www.w3.org/2000/svg">
<path d="M120.728 71.1478C148.933 54.7477 177.138 38.3481 205.344 21.948" stroke="white" stroke-width="6.82487" stroke-miterlimit="3" stroke-linecap="round"/>
<path d="M208.579 20.9987C269.156 -0.168284 303.788 20.8566 321.104 31.3694" stroke="#C34036" stroke-width="6.82487" stroke-miterlimit="3" stroke-linecap="round"/>
<path d="M3.99902 62.163C57.6149 94.2972 99.0945 78.9883 119.834 71.3336" stroke="#C34036" stroke-width="6.82487" stroke-miterlimit="3" stroke-linecap="round"/>
<path d="M120.061 22.1707C148.609 38.8452 177.156 55.5196 205.703 72.194" stroke="white" stroke-width="6.82487" stroke-miterlimit="3" stroke-linecap="round"/>
<path d="M162.409 72.1309C176.315 72.1309 187.588 60.8579 187.588 46.952C187.588 33.0461 176.315 21.7731 162.409 21.7731C148.503 21.7731 137.23 33.0461 137.23 46.952C137.23 60.8579 148.503 72.1309 162.409 72.1309Z" stroke="white" stroke-width="6.82487" stroke-miterlimit="3" stroke-linecap="round"/>
<path fill-rule="evenodd" clip-rule="evenodd" d="M205.502 4.17428L120.014 4L119.84 89.1395L206.026 90.1863L205.502 4.17428Z" stroke="white" stroke-width="6.82487" stroke-miterlimit="1.5" stroke-linecap="round"/>
<path d="M48.6696 165.354H21.5405V125.921H26.5117V160.92H48.6696V165.354Z" fill="white"/>
<path d="M96.4113 165.355H91.2281L77.0356 131.475L66.6754 156.093L62.7952 165.355H57.6121L74.7382 125.893H79.2851L96.4113 165.355Z" fill="white"/>
<path d="M109.021 165.354V125.921H124.177C127.067 125.921 129.598 126.445 131.77 127.492C133.943 128.54 135.615 130.019 136.787 131.927C137.959 133.835 138.545 136.034 138.545 138.523C138.545 141.105 137.969 143.364 136.817 145.301C135.665 147.237 134.008 148.734 131.846 149.791C129.684 150.848 127.137 151.377 124.207 151.377H113.992V165.354H109.021ZM123.844 147.139C125.783 147.139 127.486 146.788 128.951 146.087C130.416 145.385 131.548 144.388 132.346 143.097C133.144 141.806 133.543 140.3 133.543 138.579C133.543 136.876 133.144 135.393 132.346 134.13C131.548 132.867 130.416 131.89 128.951 131.197C127.486 130.505 125.783 130.159 123.844 130.159H113.992V147.139H123.844Z" fill="white"/>
<path d="M157.277 125.921H152.306V165.354H157.277V125.921Z" fill="white"/>
<path d="M187.225 165.888C183.951 165.888 180.834 165.289 177.874 164.092C174.913 162.894 172.463 161.182 170.523 158.955L173.796 156.037C175.393 157.814 177.394 159.18 179.798 160.134C182.203 161.088 184.678 161.566 187.225 161.566C189.144 161.566 190.872 161.294 192.408 160.752C193.944 160.209 195.151 159.409 196.03 158.352C196.909 157.295 197.349 156.008 197.349 154.493C197.349 153.015 196.869 151.817 195.909 150.9C194.949 149.983 193.696 149.249 192.151 148.697C190.605 148.145 188.458 147.532 185.709 146.859C183.042 146.223 180.784 145.53 178.935 144.782C177.085 144.033 175.525 142.943 174.251 141.512C172.978 140.08 172.342 138.233 172.342 135.969C172.342 133.911 172.953 132.082 174.176 130.482C175.398 128.882 177.111 127.633 179.313 126.735C181.516 125.837 184.052 125.388 186.922 125.388C189.63 125.388 192.236 125.823 194.742 126.693C197.248 127.563 199.42 128.793 201.259 130.384L198.289 133.555C196.874 132.358 195.172 131.408 193.181 130.706C191.191 130.005 189.175 129.654 187.134 129.654C185.335 129.654 183.688 129.911 182.193 130.426C180.698 130.94 179.51 131.689 178.631 132.671C177.752 133.653 177.313 134.8 177.313 136.109C177.313 137.475 177.768 138.579 178.677 139.421C179.586 140.263 180.728 140.923 182.102 141.4C183.476 141.877 185.447 142.434 188.013 143.07C191.105 143.893 193.636 144.716 195.606 145.54C197.577 146.363 199.198 147.49 200.471 148.922C201.744 150.353 202.381 152.182 202.381 154.409C202.381 156.804 201.714 158.866 200.38 160.597C199.046 162.328 197.233 163.642 194.939 164.541C192.646 165.439 190.074 165.888 187.225 165.888Z" fill="white"/>
<path d="M235.391 166C231.369 166 227.687 165.097 224.342 163.292C220.998 161.486 218.35 159.025 216.4 155.91C214.45 152.795 213.475 149.366 213.475 145.624C213.475 141.881 214.45 138.453 216.4 135.337C218.35 132.222 220.998 129.766 224.342 127.97C227.687 126.173 231.369 125.276 235.391 125.276C238.179 125.276 240.796 125.711 243.241 126.581C245.687 127.451 247.879 128.662 249.819 130.215L246.97 133.667C245.373 132.432 243.585 131.464 241.605 130.762C239.624 130.061 237.553 129.71 235.391 129.71C232.339 129.71 229.525 130.412 226.949 131.815C224.373 133.218 222.326 135.141 220.811 137.583C219.295 140.024 218.537 142.714 218.537 145.652C218.537 148.589 219.295 151.27 220.811 153.693C222.326 156.116 224.373 158.029 226.949 159.433C229.525 160.836 232.339 161.537 235.391 161.537C237.553 161.537 239.584 161.191 241.483 160.499C243.383 159.807 245.232 158.787 247.031 157.44L249.819 160.948C247.839 162.52 245.626 163.755 243.181 164.653C240.736 165.551 238.139 166 235.391 166Z" fill="white"/>
<path d="M281.646 166C277.625 166 273.942 165.097 270.598 163.292C267.253 161.486 264.606 159.025 262.656 155.91C260.706 152.795 259.731 149.366 259.731 145.624C259.731 141.881 260.706 138.453 262.656 135.337C264.606 132.222 267.253 129.766 270.598 127.97C273.942 126.173 277.625 125.276 281.646 125.276C285.668 125.276 289.355 126.173 292.71 127.97C296.065 129.766 298.712 132.222 300.652 135.337C302.592 138.453 303.562 141.881 303.562 145.624C303.562 149.366 302.592 152.795 300.652 155.91C298.712 159.025 296.065 161.486 292.71 163.292C289.355 165.097 285.668 166 281.646 166ZM281.646 161.537C284.698 161.537 287.517 160.836 290.103 159.433C292.69 158.029 294.741 156.116 296.257 153.693C297.772 151.27 298.53 148.589 298.53 145.652C298.53 142.714 297.772 140.024 296.257 137.583C294.741 135.141 292.69 133.218 290.103 131.815C287.517 130.412 284.698 129.71 281.646 129.71C278.595 129.71 275.781 130.412 273.204 131.815C270.628 133.218 268.582 135.141 267.066 137.583C265.551 140.024 264.793 142.714 264.793 145.652C264.793 148.589 265.551 151.27 267.066 153.693C268.582 156.116 270.628 158.029 273.204 159.433C275.781 160.836 278.595 161.537 281.646 161.537Z" fill="white"/>
</svg>
